<svg width="28" height="26" viewBox="0 0 28 26" fill="none" xmlns="http://www.w3.org/2000/svg">
<path d="M13.064 11H2.03V21.833C2.018 22.9415 2.462 24.008 3.26 24.791C4.058 25.574 5.1455 26.0105 6.275 26H13.0655L13.064 11ZM13.319 5.33149H14.507C15.683 3.30649 16.76 1.92949 17.7725 1.18549C19.0205 0.265994 20.2985 0.258494 21.3005 1.24249C22.2365 2.16049 22.412 3.31249 21.7955 4.42249C21.6215 4.73149 21.3905 5.03449 21.101 5.33149H25.463C26.4815 5.33149 27.5 6.16849 27.5 7.33099C27.5 8.33149 26.6465 9.33199 25.463 9.33199H14.762V6.66499H13.064V9.33199H2.537C1.52 9.33199 0.5 8.49499 0.5 7.33099C0.5 6.33199 1.3535 5.33149 2.537 5.33149H6.947C6.67105 5.07437 6.42545 4.7865 6.215 4.47349C5.4845 3.35749 5.573 2.17849 6.5255 1.24249C7.5275 0.258494 8.8055 0.267494 10.055 1.18549C11.066 1.92949 12.143 3.30799 13.3205 5.33149H13.319ZM11.3465 5.33149C10.4765 3.94699 9.6995 3.00649 9.0365 2.51899C8.423 2.06899 8.087 2.06599 7.7255 2.41999C7.355 2.78449 7.3325 3.09649 7.643 3.57049C7.997 4.11199 8.7425 4.72249 9.8165 5.33149H11.3465ZM16.4795 5.33149H18.3095C19.334 4.74349 20.0105 4.1495 20.3045 3.6215C20.5595 3.16549 20.5055 2.81899 20.1005 2.42149C19.739 2.06599 19.403 2.06749 18.791 2.51899C18.1265 3.00649 17.348 3.94699 16.481 5.33149H16.4795ZM14.762 10.9985H25.7975V21.833C25.8022 22.3835 25.6957 22.9292 25.4844 23.4375C25.273 23.9458 24.9611 24.4062 24.5675 24.791C23.7625 25.5778 22.678 26.0127 21.5525 26H14.762V10.9985Z" fill="white"/>
</svg>
