<svg width="24" height="24" viewBox="0 0 24 24" fill="none" xmlns="http://www.w3.org/2000/svg">
<path d="M12.59 15.3H11.09C9.94 15.3 9.01 14.34 9.01 13.15C9.01 12.74 9.35 12.4 9.76 12.4C10.17 12.4 10.51 12.74 10.51 13.15C10.51 13.51 10.77 13.8 11.09 13.8H12.59C12.82 13.8 13 13.59 13 13.33C13 12.98 12.94 12.96 12.71 12.88L10.3 12.04C9.43 11.74 9 11.13 9 10.18C9 9.09996 9.86 8.20996 10.91 8.20996H12.41C13.56 8.20996 14.49 9.16996 14.49 10.36C14.49 10.77 14.15 11.11 13.74 11.11C13.33 11.11 12.99 10.77 12.99 10.36C12.99 9.99996 12.73 9.70996 12.41 9.70996H10.91C10.68 9.70996 10.5 9.91996 10.5 10.18C10.5 10.53 10.56 10.55 10.79 10.63L13.2 11.47C14.07 11.78 14.49 12.39 14.49 13.33C14.5 14.42 13.64 15.3 12.59 15.3Z" fill="#818181"/>
<path d="M11.75 16.0999C11.34 16.0999 11 15.7599 11 15.3499V14.6099C11 14.1999 11.34 13.8599 11.75 13.8599C12.16 13.8599 12.5 14.1999 12.5 14.6099V15.3499C12.5 15.7699 12.16 16.0999 11.75 16.0999Z" fill="#818181"/>
<path d="M11.75 9.69992C11.34 9.69992 11 9.35992 11 8.94992V8.16992C11 7.75992 11.34 7.41992 11.75 7.41992C12.16 7.41992 12.5 7.75992 12.5 8.16992V8.94992C12.5 9.35992 12.16 9.69992 11.75 9.69992Z" fill="#818181"/>
<path d="M11.74 20.48C6.92 20.48 3 16.56 3 11.74C3 6.92 6.92 3 11.74 3C16.56 3 20.48 6.92 20.48 11.74C20.48 16.56 16.55 20.48 11.74 20.48ZM11.74 4.51C7.75 4.51 4.5 7.76 4.5 11.75C4.5 15.74 7.75 18.98 11.74 18.98C15.73 18.98 18.98 15.73 18.98 11.74C18.98 7.75 15.73 4.51 11.74 4.51Z" fill="#818181"/>
</svg>
